<svg xmlns="http://www.w3.org/2000/svg" width="28" height="31" fill="none"  xmlns:v="https://vecta.io/nano"><path d="M20.004 19.314l-5.755 4.73-5.755-4.73c-1.11.048-7.758.924-7.758 8.543 0 1.579 1.297 2.86 2.896 2.86h21.235c1.599 0 2.896-1.281 2.896-2.86 0-7.62-6.642-8.496-7.758-8.543zm-6.72 9.497H3.632c-.531 0-.965-.429-.965-.953 0-5.934 5.073-6.547 5.212-6.571l5.405 4.444v3.08zm12.548-.953c0 .524-.434.953-.965.953h-9.652v-3.08l5.405-4.444c.139.024 5.212.638 5.212 6.571h0zM1.532 6.171l.41.119v2.24c-.422.25-.724.685-.724 1.209 0 .5.278.918.67 1.174l-.941 3.718c-.103.411.127.834.458.834h2.522c.332 0 .561-.423.458-.834l-.941-3.712c.392-.256.67-.673.67-1.174 0-.524-.302-.959-.724-1.209V6.719l2.817.822c-.404.977-.645 2.038-.645 3.158 0 4.736 3.891 8.579 8.687 8.579s8.687-3.843 8.687-8.579c0-1.12-.241-2.181-.645-3.158l4.675-1.37c1.062-.31 1.062-2.073 0-2.383L15.269.362a3.52 3.52 0 0 0-1.02-.149 3.52 3.52 0 0 0-1.02.149L1.532 3.788c-1.062.31-1.062 2.073 0 2.383zm12.717 11.2c-3.728 0-6.757-2.991-6.757-6.673 0-.935.223-1.805.579-2.61l5.158 1.513a3.59 3.59 0 0 0 2.039 0l5.158-1.513c.356.804.579 1.68.579 2.61 0 3.682-3.028 6.673-6.757 6.673zm-.471-15.186c.048-.012.44-.143.941 0l9.532 2.794-9.532 2.794c-.048.012-.44.143-.941 0L4.247 4.979l9.532-2.794h0z" fill="#fff"/></svg>